<svg xmlns="http://www.w3.org/2000/svg" xmlns:xlink="http://www.w3.org/1999/xlink" viewBox="0 0 751 331"><defs><style>.cls-1{fill:#1e4174;}.cls-15,.cls-2,.cls-21,.cls-25,.cls-35,.cls-37,.cls-39,.cls-6{fill:none;}.cls-3{fill:#228c7e;}.cls-4{fill:#03aa99;}.cls-5{fill:#40c7a7;}.cls-6{stroke:#3b55ce;stroke-width:1.05px;}.cls-15,.cls-25,.cls-35,.cls-37,.cls-6{stroke-linecap:round;}.cls-15,.cls-21,.cls-25,.cls-35,.cls-37,.cls-39,.cls-6{stroke-miterlimit:10;}.cls-7{fill:#fff;}.cls-8{fill:url(#Degradado_sin_nombre_19);}.cls-9{fill:#ffc253;}.cls-10{fill:#e09736;}.cls-11{fill:#ffc854;}.cls-12{fill:#3b55ce;}.cls-13{fill:#aaeeed;}.cls-14{clip-path:url(#clip-path);}.cls-15,.cls-37{stroke:#aaeeed;}.cls-15,.cls-21{stroke-width:0.55px;}.cls-16{fill:#ff9a8d;}.cls-17{clip-path:url(#clip-path-2);}.cls-18{fill:#85b8ed;}.cls-19{fill:#4e7eac;}.cls-20{clip-path:url(#clip-path-3);}.cls-21,.cls-39{stroke:#274d79;}.cls-22{fill:#001c45;}.cls-23{fill:#3ed9c7;}.cls-24{fill:#ba5964;}.cls-25{stroke:#001c45;stroke-width:0.79px;}.cls-26{fill:#dd7a79;}.cls-27{fill:#2339a0;}.cls-28{fill:#91dbac;}.cls-29{fill:#22a482;}.cls-30{fill:#3dc19a;}.cls-31{fill:#638be2;}.cls-32{fill:#e5f7ff;}.cls-33{fill:#8fc9c6;}.cls-34{clip-path:url(#clip-path-4);}.cls-35{stroke:#8fc9c6;}.cls-35,.cls-37,.cls-39{stroke-width:0.53px;}.cls-36{clip-path:url(#clip-path-5);}.cls-38{clip-path:url(#clip-path-6);}</style><linearGradient id="Degradado_sin_nombre_19" x1="375.5" y1="-0.82" x2="375.5" y2="268.7" gradientUnits="userSpaceOnUse"><stop offset="0" stop-color="#638be3"/><stop offset="0.15" stop-color="#79a2e4" stop-opacity="0.8"/><stop offset="0.35" stop-color="#94c0e5" stop-opacity="0.55"/><stop offset="0.53" stop-color="#a9d6e5" stop-opacity="0.36"/><stop offset="0.67" stop-color="#b5e3e6" stop-opacity="0.24"/><stop offset="0.75" stop-color="#bae8e6" stop-opacity="0.2"/></linearGradient><clipPath id="clip-path"><path class="cls-1" d="M508.56,155.67c-.07,1.91.37,6.56-.53,8.54-2.19,1.13-6.09.28-8.83-1.2s-5.14-.45-8.84-1.14-6.39-2.44-6.76-4.17,6.17-1.63,10.75-1.92a19.57,19.57,0,0,0,8.16-2.14Z"/></clipPath><clipPath id="clip-path-2"><path class="cls-1" d="M525.6,154.13c1.24,1.42,4.72,4.43,5.42,6.49-.8,2.38-4.17,4.58-7.13,5.49s-4,3.39-7.1,5.56-6.22,2.85-7.66,1.88,3.3-5.6,6.38-9.11a20.74,20.74,0,0,0,4.38-7.4Z"/></clipPath><clipPath id="clip-path-3"><path class="cls-2" d="M561.69,87.05c.87,2.3,2.82,5,4,7.19s5,7.85,2.82,13.86c-2.34,6.45-7.55,8.06-12.93,8.06H543.08c-3.67,0-26.25-5.72-26.25-5.72a10.24,10.24,0,0,1,3.88,5.72c1.28,4.17,3.84,32.12,3.84,32.12-1.66,1.73-4,2.44-6.95,2.2,0,0-6.83-21.65-9.57-29.7-2.83-8.31-6.22-16.54-5.58-20.16.89-5.07,9.42-5.22,16.47-5s23.27.88,26.57.4L543.78,90Z"/></clipPath><clipPath id="clip-path-4"><path class="cls-3" d="M288.9,258.49c-.35,1.78-1.76,6-1.36,8,1.78,1.55,5.58,1.66,8.44.92s4.86.76,8.44,1,6.45-.79,7.17-2.31-5.36-2.93-9.54-4.26A18.85,18.85,0,0,1,295,258Z"/></clipPath><clipPath id="clip-path-5"><path class="cls-4" d="M234.23,243.41c-1.76.13-6.08-.16-7.88.78-1,2.18-.08,6,1.37,8.62s.57,5,1.31,8.65,2.45,6.19,4.06,6.5,1.33-6.09,1.46-10.6a20,20,0,0,1,1.74-8.07Z"/></clipPath><clipPath id="clip-path-6"><path class="cls-2" d="M242.5,245.88s31.69-17.68,33.82-19.38,14.87-46.65,15.85-49.56c0,0,9.39-7.87,10.69-14.11L281.15,148.2c-1.66,3.67-1.64,6.12-6.06,15.31-4.22,8.77-5.75,33.48-9.81,54.42a36.24,36.24,0,0,0-6.52,2.62c-3.83,1.88-20.06,19.56-20.06,19.56A8.24,8.24,0,0,0,242.5,245.88Z"/></clipPath></defs><title>Asset 1</title><g id="Layer_2" data-name="Layer 2"><g id="Objects"><path class="cls-5" d="M647.24,283.24s-7-3.25-6.49-11,5.64-9.32,10.08-12.13,4.78-7.56,4.95-13.37,3.93-11.6,11.44-11.25,10.29,1.93,15.73-4.75,12.79-6.5,15.86-2.81a10.58,10.58,0,0,1-1.39,14.43c-5.67,5.33-7.14,6.67-8.78,12.53-2.22,8,1,15.71-1.87,19.4-3.82,4.94-7.94,3.73-11.87,5.33s-4.07,3.61-4.07,3.61Z"/><path class="cls-6" d="M692,233.09c-11.49,6.9-31.48,27.88-34.87,50.15"/><rect class="cls-7" width="751" height="331"/><polygon class="cls-8" points="0 0 356.46 269.52 751 269.52 751 0 0 0"/><rect class="cls-9" x="443.68" y="116.16" width="221.24" height="154.08"/><path class="cls-10" d="M443.68,116.16l103.84,97.56a9.84,9.84,0,0,0,13.56,0l103.84-97.56Z"/><polygon class="cls-10" points="664.92 270.24 554.3 151.36 664.92 260.12 664.92 270.24"/><polygon class="cls-10" points="443.68 270.24 554.3 151.36 443.68 260.12 443.68 270.24"/><path class="cls-11" d="M443.68,116.16l102.25,89a12.67,12.67,0,0,0,16.74,0l102.25-89Z"/><path class="cls-12" d="M517.43,42.52a3.45,3.45,0,1,1,3.45,3.54A3.5,3.5,0,0,1,517.43,42.52Z"/><path class="cls-13" d="M483.6,157.7c-.46.54-.51,1.86,1.67,3.5s6.67,2.29,8.49,2.37,3-.18,5.46,1,6.74,2,8.28,1.21c.57-.42.53-1.59.53-1.59Z"/><path class="cls-1" d="M508.56,155.67c-.07,1.91.37,6.56-.53,8.54-2.19,1.13-6.09.28-8.83-1.2s-5.14-.45-8.84-1.14-6.39-2.44-6.76-4.17,6.17-1.63,10.75-1.92a19.57,19.57,0,0,0,8.16-2.14Z"/><g class="cls-14"><path class="cls-15" d="M500.12,157.3s-.27-2.69-1.23-3.78"/><path class="cls-15" d="M496.56,157.82s-.27-2.69-1.23-3.78"/><path class="cls-15" d="M493,158.34s-.28-2.69-1.24-3.78"/></g><path class="cls-16" d="M510.49,149l-1.93,6.66a3.22,3.22,0,0,0-1.32.41c-.44.32-1.22,1.58-1.8,1.46-2.31-.47-2.93-3.9-2.93-3.9l1.63-7Z"/><path class="cls-1" d="M543.78,90l-.87,7-23.81-.5a7.63,7.63,0,0,0-7.27,5.75c-1.66,5.86-7.88,45.23-7.88,45.23s3.35,2.54,6.74,2c0,0,11.23-23.91,12.84-30.47a35.19,35.19,0,0,0,.79-12.11l28.7-2.56Z"/><path class="cls-13" d="M509.13,173.55c0,.73.9,1.71,3.57,1.31s6.33-3.17,7.69-4.43,2-2.29,4.59-3.2,6.18-3.42,6.74-5.1c.12-.7-.7-1.51-.7-1.51Z"/><path class="cls-1" d="M525.6,154.13c1.24,1.42,4.72,4.43,5.42,6.49-.8,2.38-4.17,4.58-7.13,5.49s-4,3.39-7.1,5.56-6.22,2.85-7.66,1.88,3.3-5.6,6.38-9.11a20.74,20.74,0,0,0,4.38-7.4Z"/><g class="cls-17"><path class="cls-15" d="M520.67,161.37s-2-1.72-3.45-1.8"/><path class="cls-15" d="M518.48,164.31s-2-1.73-3.45-1.81"/><path class="cls-15" d="M516.29,167.24s-2-1.72-3.45-1.81"/></g><path class="cls-16" d="M524.55,148.28l1.05,5.85a3.39,3.39,0,0,0-.67,1.24c-.09.55.2,2-.3,2.35-2,1.32-4.74-.68-4.74-.68l-2.29-7.24Z"/><path class="cls-18" d="M561.69,87.05c.87,2.3,2.82,5,4,7.19s5,7.85,2.82,13.86c-2.34,6.45-7.55,8.06-12.93,8.06H543.08c-3.67,0-26.25-5.72-26.25-5.72a10.24,10.24,0,0,1,3.88,5.72c1.28,4.17,3.84,32.12,3.84,32.12-1.66,1.73-4,2.44-6.95,2.2,0,0-6.76-21.68-9.57-29.7-2.94-8.38-6.22-16.54-5.58-20.16.89-5.07,9.42-5.22,16.47-5s23.27.88,26.57.4L543.78,90Z"/><path class="cls-19" d="M568.55,108.1c2.18-6-1.59-11.72-2.82-13.86s-3.17-4.89-4-7.19L543.78,90l1.1,3.88s9.93,1.41,14.26-3.88c0,0,3.16,5,4.08,7.93,1.27,4.1.92,10.76-6.88,12.36s-36.58-2.77-40.39-3.2-2.54,1.83-.43,6.44,3,12.87,4.91,22.77c1.22,6.31,2.59,13.2,2.59,13.2a6.81,6.81,0,0,0,1.53-1.2s-2.56-27.95-3.84-32.12a10.24,10.24,0,0,0-3.88-5.72s22.58,5.72,26.25,5.72h12.54C561,116.16,566.21,114.55,568.55,108.1Z"/><g class="cls-20"><path class="cls-21" d="M555,87.07c.88,5.48,3.11,8.2,2.89,13.21s-4.15,7.56-15.61,6.5-29.06-3.7-30.6-3.25-1,2.85,1,10,9.05,38.94,9.05,38.94"/><path class="cls-21" d="M557.71,101.53a5.45,5.45,0,0,1-4.57-1.25c-2-1.85-2.62-10.28-2.62-10.28"/><path class="cls-21" d="M516,147.88a10.21,10.21,0,0,0,9-2.82"/></g><path class="cls-22" d="M554.07,20.08s-3.59-3.13-10.29-2.47c-5.33.52-9.23,3.71-10.46,7.73s-.86,11.37,5.61,15.48c0,0-2,1.13.22,3.31,0,0-3.45.87-4.57,2.84s0,3.83.67,6.06.89,2.58-2,5.56-5.39,8.27-1.3,15S543.14,86.08,553,85.54s21.28-4,24.11-19.82S570.26,46.26,567.59,47a33.85,33.85,0,0,0,2.06-15.49c-.9-8.72-5-12.64-8.51-12.93C556,18.14,554.07,20.08,554.07,20.08Z"/><path class="cls-16" d="M552,51.34c-1.32.41-3.52.75-4.69,1.69s-12.72,19.46-12.72,19.46S523.93,55.35,522.35,53.3s-9.76-4.81-11.24-4.51c-1.82.38-.84,2.72-.47,4.24.22.88.55,3.29,2.05,4.35s6.85,1.9,6.85,1.9S529.11,80,531.09,83.14c1.28,2,2.69,2,5.06-.66s11.47-15,11.47-15Z"/><path class="cls-4" d="M552,51.34c-2.1.79-4.05.74-5.12,2.14s-2,7.79-2,7.79,5.29-1.08,6.69-3.94A14.08,14.08,0,0,0,553,51.89Z"/><path class="cls-23" d="M559.35,47.78a3.64,3.64,0,0,0,1.79.66c1.18.17,5,1,5.8,2.52,1.87,2.65-.05,11.36-1.13,17.47-.67,3.72-7.08,12.09-2.7,20.62,0,0-9.87,6-19.83.93-1-5.07.18-8.61.22-14.33a12.73,12.73,0,0,1-2.93-6.34c-.48-7,6.29-9.09,11.57-16.85,1.47-2.17,2.58-2.06,4.59-3.64A4.62,4.62,0,0,1,559.35,47.78Z"/><path class="cls-16" d="M562.4,50.8c3-1.93,5.4.45,6.82,3.94s8.86,25.17,9.51,27.86-2.22,29.36-3,30.91-1.61,2.65-4.6,2.65H557.39a4.49,4.49,0,0,1,3-2c2.35-.6,9-.81,10.33-3s.75-27,.75-27-8.28-18.2-10.11-22.73S560.29,52.18,562.4,50.8Z"/><path class="cls-4" d="M563.8,49.62c-1.77,0-5.81,4.14-2.4,11.78,0,0,4.43-6.46,8.48-4.89C569.88,56.51,568.11,48.59,563.8,49.62Z"/><path class="cls-16" d="M555.77,40.78l3.12,2.86,1.37,4.8A12.37,12.37,0,0,0,557.55,51c-.91,1.43-3,4.85-5.44,5.14a21,21,0,0,0-.13-4.75c-.37-1.66-1.5-5-1.5-5Z"/><path class="cls-24" d="M555.77,40.78a17.81,17.81,0,0,1,.56,4c-.11,1.37-1.28,4.2-4.35,6.51-.37-1.66-1.5-5-1.5-5Z"/><path class="cls-24" d="M542.66,34.74c-.58,2.16-3,5.18-2.46,5.72s2.48.35,2.48.35a4,4,0,0,0,1-3.59C543.17,35.13,542.66,34.74,542.66,34.74Z"/><path class="cls-16" d="M547.88,21.25c-2.9.28-5.8,4.41-5.75,8.18s.9,5.81.67,8.47a16.9,16.9,0,0,0,.87,8c.72,1.85,2.6,2.27,5.1,1.65A18.31,18.31,0,0,0,554.91,44c.73-.72.86-3.22.86-3.22a7.13,7.13,0,0,0,5-3.74C562.33,33.82,562,19.93,547.88,21.25Z"/><path class="cls-22" d="M555.77,40.78A4.83,4.83,0,0,0,558.62,36c-.29-3.66-5.09-3.79-4.89-.57a10.55,10.55,0,0,1-5.4-3.15c-3.84-4.64-4.27-8.42-4.27-8.42.82-5.77,10-3.73,10-3.73s4.66-2.07,8.63.65c2.83,1.95,4.28,8.94,2,14.76s-5.79,8.15-5.79,8.15Z"/><path class="cls-22" d="M545.19,35.68a.83.83,0,0,1,.88-.81.86.86,0,1,1-.88.81Z"/><path class="cls-22" d="M544.49,33.41l3.84,1.26a2.06,2.06,0,0,0-1.4-1.77A2.25,2.25,0,0,0,544.49,33.41Z"/><path class="cls-24" d="M556.64,35.19a1.88,1.88,0,0,0-1.74.2c-.16.13.12.41.27.35.89-.34,2-.39,2.4.68,0,.06.06,0,.06,0A1.47,1.47,0,0,0,556.64,35.19Z"/><path class="cls-24" d="M556.23,35.27c-.1-.05-.32.2-.3.27a1.23,1.23,0,0,1,.48.44,1.68,1.68,0,0,1,.21,1,1.81,1.81,0,0,1-1.43,1.76s0,0,0,.06c.75.19,1.59-.6,1.77-1.29A1.92,1.92,0,0,0,556.23,35.27Z"/><path class="cls-16" d="M552.14,52.46c.05,1-1.85,3.3-1.38,4.87s3.63,1.79,5.34,0,2.71-7.37,5-8.89a1.32,1.32,0,0,1-1.15-1Z"/><path class="cls-1" d="M518,47.06s-.94,8.48,2.24,15.26a1.42,1.42,0,0,1-.59,1.83l-3.87,2.22a1.38,1.38,0,0,1-2-1,43.67,43.67,0,0,1,.76-18.74Z"/><path class="cls-16" d="M514,49.26c1,.28,2.4.91,2.44,1.87s-1.5,1-1.5,1,1.1.5,1.18,1.21a1.46,1.46,0,0,1-1.62,1.42,1.08,1.08,0,0,1,.72,1.33c-.32,1-1.86.17-2.16.88a4.56,4.56,0,0,1-1-3C512,52,514,49.26,514,49.26Z"/><path class="cls-16" d="M522.35,53.3a7.22,7.22,0,0,0-4-4c-1.8-.73-2.66-2.16-3.13-1.44s.81,3,2.78,3.73Z"/><path class="cls-1" d="M512,46.78l8,1c2.06.25,3.33-10.62,1.28-10.88l-7.86-1.36Z"/><path class="cls-12" d="M513.45,35.58c-2.92-.34-13-5.17-15.14-13.87C490.07,20.63,486.21,52,494.45,53c2.26-5.41,13.55-6.78,17.58-6.25C513.6,47,515,35.79,513.45,35.58Z"/><path class="cls-25" d="M546.86,13.06c2.56.62,6.31,3.73,7.21,7"/><path class="cls-26" d="M299.91,114c6.6,6.2,13.78,10.41,22.1,8.77,11.72-2.29,20.87-14.59,20.87-14.59a42,42,0,0,1,3,4.46c0,.4-7.75,16.22-21.79,19.46S297.44,125,297.44,125Z"/><path class="cls-12" d="M420.23,199.44a19.2,19.2,0,0,0,24.58,6.41l15.63-7.93a6.38,6.38,0,0,1,8.34,2.4L497,246a6.78,6.78,0,0,1-2.27,9.39c-9.14,5.33-28,14.33-48.8,12.59-29.17-2.45-48.16-30.38-80.29-82.35S317,104.15,327.23,75.9C334.5,55.78,350.41,42,359,35.71a6.37,6.37,0,0,1,9.22,1.87l28.26,45.71a6.83,6.83,0,0,1-1.42,8.8l-13.6,11.22A20.51,20.51,0,0,0,376.67,129Z"/><path class="cls-27" d="M383.58,101.54,395,92.09a6.83,6.83,0,0,0,1.42-8.8L381.51,59.13,368,37.35a6.35,6.35,0,0,0-9-1.64,107,107,0,0,0-10.63,8.95Z"/><path class="cls-27" d="M482.4,261.55a104,104,0,0,0,12.37-6.12,6.76,6.76,0,0,0,2.41-9.09l-29-46.86a6.35,6.35,0,0,0-7.71-1.56l-13.29,6.74Z"/><path class="cls-10" d="M300.34,114.39l5.35,4.13s2.41,7.61-1.66,11.57l-7.09-4.42Z"/><path class="cls-28" d="M208,270.24a33,33,0,0,0,8.66-11.34c3.51-7.54.39-14.12-4.52-13.17-5.23,1-5.95-3.38-7.39-8.95-1.73-6.68-10.12-16.19-17-15.24-8.83,1.24-3.24,11-2.34,14.5s3.13,7.6-2.35,8.15c-5,.51-7.18,5.17-3.29,9.95,3.7,4.54,7.72,4.47,7.9,9.08s3,5.91,5.32,7Z"/><path class="cls-6" d="M191.5,229.6s12,16.18,9,40.64"/><path class="cls-5" d="M315.57,270.24a13.8,13.8,0,0,0,1.36-11.53c-2.66-8.79-10.58-12.85-7.72-18.6,2.37-4.79,9.48-2.37,13.24,4.08,3.62,6.2,3.9,19.26-1.81,26.05Z"/><path class="cls-6" d="M314.79,242.61s10.91,12.15,3.77,27.63"/><path class="cls-29" d="M323.65,270.24a36.93,36.93,0,0,0,12.75-15.88c4.51-10.71,4.71-23.23,0-27.67-4.4-4.15-9.61-1.62-11,5.65s1.76,25.71-7.46,37.9Z"/><path class="cls-6" d="M332.28,228.71a66,66,0,0,1-1.76,22.65,54.74,54.74,0,0,1-9,18.88"/><path class="cls-28" d="M439.64,270.24a48.71,48.71,0,0,0-11.35-28.91c-11.53-13.94-24.71-18.94-36.11-14.71-8.48,3.15-6.3,13.27.64,17.57,8.2,5.1,38.95,7.17,40.05,26.05Z"/><path class="cls-6" d="M393.41,233.38c15.66-.91,39.64,14,42.94,36.86"/><path class="cls-30" d="M443.22,270.24s7.59-8.32,6.12-24.37-15.16-20-17.63-12.26c-1.93,6.1,11.41,20.31,6.65,36.63Z"/><path class="cls-6" d="M438.36,234.74c2.94,3.91,8.59,19.95,2.82,35.5"/><path class="cls-31" d="M681,272.25H171.58a2,2,0,0,1-2-2h0a2,2,0,0,1,2-2H681a2,2,0,0,1,1.94,2h0A2,2,0,0,1,681,272.25Z"/><path class="cls-32" d="M256.6,272.25H649.79a0,0,0,0,1,0,0V290.6a31.64,31.64,0,0,1-31.64,31.64H288.24A31.64,31.64,0,0,1,256.6,290.6V272.25A0,0,0,0,1,256.6,272.25Z"/><path class="cls-33" d="M311.59,266.11c.31.61.07,1.84-2.31,2.86s-6.68.59-8.39.24-2.74-.85-5.27-.31-6.68.31-7.94-.79c-.43-.51-.14-1.59-.14-1.59Z"/><path class="cls-3" d="M288.9,258.49c-.35,1.78-1.76,6-1.36,8,1.78,1.55,5.58,1.66,8.44.92s4.86.76,8.44,1,6.45-.79,7.17-2.31-5.36-2.93-9.54-4.26A18.85,18.85,0,0,1,295,258Z"/><g class="cls-34"><path class="cls-35" d="M296.36,261.94s.85-2.43,2-3.22"/><path class="cls-35" d="M299.55,263.24s.84-2.43,2-3.21"/><path class="cls-35" d="M302.73,264.54s.84-2.43,2-3.21"/></g><path class="cls-16" d="M288.9,251.36v7.13a3,3,0,0,1,1.13.68c.34.4.8,1.75,1.36,1.77C293.63,261,295,258,295,258l.84-6.48Z"/><path class="cls-13" d="M233.09,268c-.49.47-1.7.56-3.29-1.53s-2.31-6.48-2.44-8.27.07-3-1.11-5.32-2.05-6.55-1.36-8.08c.37-.57,1.46-.57,1.46-.57Z"/><path class="cls-4" d="M234.23,243.41c-1.76.13-6.08-.16-7.88.78-1,2.18-.08,6,1.37,8.62s.57,5,1.31,8.65,2.45,6.19,4.06,6.5,1.33-6.09,1.46-10.6a20,20,0,0,1,1.74-8.07Z"/><g class="cls-36"><path class="cls-37" d="M233,251.74s2.5.2,3.53,1.11"/><path class="cls-37" d="M232.59,255.25s2.5.19,3.54,1.1"/><path class="cls-37" d="M232.22,258.75s2.5.2,3.53,1.11"/></g><path class="cls-16" d="M238.7,240.11l-4.47,3.3a3.27,3.27,0,0,1-.33,1.31c-.29.44-1.43,1.25-1.31,1.82.51,2.24,3.7,2.75,3.7,2.75l6.21-3.41Z"/><path class="cls-1" d="M302.27,149.79c-7.75,0-13.53.61-13.53.61-2.47,1.11-6.73,6.92-8,10.6s.6,8.84,1.26,12c3.64,17.65,7.36,29.92,8.78,36.92.86,4.28-2.22,5-2.25,11.75,0,9.71.35,30.41.35,30.41a8.82,8.82,0,0,0,6.74.55s5.82-34.14,6.46-38c1-6.33,1.39-9,1.51-20C303.77,179.22,302.27,149.79,302.27,149.79Z"/><path class="cls-18" d="M302.17,163.17c-1.29,6.25-10,13.77-10,13.77-1,2.91-13.74,47.86-15.86,49.57s-33.81,19.36-33.81,19.36a7.24,7.24,0,0,1-3-3.26,9.34,9.34,0,0,1-.73-2.13,2.26,2.26,0,0,1-.05-.31.32.32,0,0,1,0-.07s16.22-17.66,20-19.55a35.24,35.24,0,0,1,6.52-2.61v0c4.36-20.88,4.23-37.2,7.75-48.74a52.82,52.82,0,0,1,2.05-5.68c.91-2,1.6-3.75,2.16-5.2.23-.63.44-1.21.63-1.75s.37-1.06.51-1.53l.28-.9c.41-1.31.69-2.37,1-3.37.14-.44.29-.87.44-1.31.09-.21.17-.44.26-.65s.18-.46.29-.68h0l6.06,4.65,2.92,2.23Z"/><path class="cls-19" d="M289.64,155a30.26,30.26,0,0,1-3.7,4.08c-4.5,4-7.22,10.31-9.62,23.31-2.7,14.65-7.24,36.43-7.79,37.78s-4.53.84-11.85,6.34c-5.52,4.15-13.55,12.79-17.18,16.1a9.34,9.34,0,0,1-.73-2.13c0-.15,0-.26-.05-.31a.32.32,0,0,1,0-.07s16.22-17.66,20-19.55a35.24,35.24,0,0,1,6.52-2.61v0c4.16-20.88,4.23-37.2,7.75-48.74a48.26,48.26,0,0,1,2.07-5.66c.9-2.05,1.59-3.76,2.14-5.22.24-.63.45-1.22.63-1.75s.37-1.06.51-1.53l.28-.9c.41-1.31.69-2.37,1-3.37.14-.44.29-.87.44-1.31.09-.21.17-.44.26-.65s.2-.44.3-.67h0l6.06,4.66Z"/><path class="cls-19" d="M302.17,163.17s-4,5.35-14.86,5.77A22.62,22.62,0,0,1,275,166.12l2.94-4.75Z"/><g class="cls-38"><path class="cls-39" d="M297.6,150.88c-4.56,6-10.39,9.69-12.81,13.83s-3.77,13.08-6.91,29.42-5.95,27.29-6.82,28.27-6.21,1.94-14.56,7.72a180.68,180.68,0,0,0-18.05,15"/><path class="cls-39" d="M292.55,165.16s-1.82,10.28-10.7,8.56"/><path class="cls-39" d="M240.42,236.9a11.63,11.63,0,0,0,5.36,8.89"/></g><polygon class="cls-16" points="291.15 103.89 298.66 110.52 302.96 100 294.02 94.69 291.15 103.89"/><path class="cls-24" d="M301.69,103.12s-8.85-2.56-7.67-8.43l9,5.31Z"/><path class="cls-9" d="M298.48,110.26a9.13,9.13,0,0,1,3.09,5.92c.41,3.73.73,9.33,1,17.45.28,7.37,1,28.77,1,28.77s-5.49,3.7-14.7,2.94c-8.79-.73-12.59-5.18-12.59-5.18s.92-30.09,3.81-41.93c4.27-12.21,11-14.33,11-14.33Z"/><path class="cls-24" d="M307.45,86.08c.46.82,2.88,4.32,3.67,5.33s-2.35,1.29-2.35,1.29Z"/><path class="cls-16" d="M294,94.69a21.56,21.56,0,0,0,1,2.1c.52.9,7.89,4,9.83,4.22s4.53-.16,4-6.84-2.16-12.47-6.49-15.49-10.42.28-13,4.56S289.54,95.92,294,94.69Z"/><path class="cls-22" d="M294,94.69h0l-1,3.07s-.74.37-2.62-2c-2.05-2.63-5.8-7.12-5.43-10,.48-3.75,4.64-5.09,4.64-5.09s2.12-6.92,10.43-10.59,12,2.51,5.59,7.07c0,0,4.44,2.28,1.63,4s-10.81,1.52-10.81,1.52,3.93,1.55,2.76,2.69-6.25.68-6.25.68l.64,2.63s-2.07-.65-3.19.73C289.11,91.06,291.17,95.55,294,94.69Z"/><path class="cls-25" d="M288.83,72.62s-2.47,5.51,2.18,9.22c0,0-4.64-.15-5.62-4.68"/><path class="cls-22" d="M304.19,87.4a.79.79,0,0,0-1-.51.84.84,0,0,0-.5,1,.8.8,0,0,0,1,.51A.84.84,0,0,0,304.19,87.4Z"/><path class="cls-22" d="M304.26,85.14l-3.21,2.17a2,2,0,0,1,.85-2A2.09,2.09,0,0,1,304.26,85.14Z"/><path class="cls-24" d="M291.46,90.23a1.82,1.82,0,0,1,1.65-.28c.18.08,0,.41-.16.4-.9-.08-1.9.17-2,1.26,0,.06-.06,0-.07,0A1.44,1.44,0,0,1,291.46,90.23Z"/><path class="cls-24" d="M291.86,90.2c.08-.07.35.1.35.17a1.13,1.13,0,0,0-.34.53,1.64,1.64,0,0,0,.07,1,1.71,1.71,0,0,0,1.75,1.24s.05,0,0,0a1.61,1.61,0,0,1-2-.71A1.85,1.85,0,0,1,291.86,90.2Z"/><path class="cls-10" d="M287.9,110.59c-1.82,1-4.21,6.39-2.51,12.22s3.89,11.86,3.89,11.86,8.75-2.13,11.06-7.87c0,0-3.09-7.78-4.53-10.93S292.49,108.09,287.9,110.59Z"/><path class="cls-10" d="M297.06,144.46c2,2,4.63,4.25,6.13,4.86-.12-3.4-.25-6.28-.36-9.43l-6.55-9-4.3-1.2-1.55,4.6S293.92,141.23,297.06,144.46Z"/><path class="cls-16" d="M290,110.52c-4.14,1.13-5.55,7.25-1.38,16.72,4,9.08,10.43,17.39,14.39,20.22s19.28,1.91,32.09-2c0,0,7.31-2.7,9.34-4.56,4.52-4.13,4.75-9.61,1.42-8.8s-8.57,4.53-8.57,4.53-1.39-2.83-2.4-5c0,0-.9.24-1.21,2.19s-.29,4.68-.84,5.08c-1.48,1.06-22,2.84-24.47.35-2.78-2.82-6.81-10.3-9.67-17.21C295.5,114.39,294.2,109.36,290,110.52Z"/><path class="cls-9" d="M288.58,109.57c-1.82,1-4.2,6.39-2.51,12.22S290,133.65,290,133.65s8.22-1.28,11.71-6.14c0,0-3.74-9.51-5.18-12.66S293.17,107.07,288.58,109.57Z"/></g></g></svg>